<svg width="312" height="48" viewBox="0 0 312 48" fill="none" xmlns="http://www.w3.org/2000/svg">
<path d="M37.4026 4.09717C37.8673 4.42586 38.332 4.7517 38.7684 5.08039L34.9715 10.3253C34.5336 9.97396 34.0778 9.64577 33.6057 9.34203L37.4026 4.09717Z" fill="white"/>
<path d="M37.4026 4.09717C37.8673 4.42586 38.332 4.7517 38.7684 5.08039L34.9715 10.3253C34.5336 9.97396 34.0778 9.64577 33.6057 9.34203L37.4026 4.09717Z" fill="white"/>
<path d="M14.5901 1.93839L16.6104 8.11264C17.8987 7.50965 19.2569 7.06897 20.6538 6.80071L18.6335 0.626465C17.2509 0.94805 15.8982 1.38695 14.5901 1.93839Z" fill="white"/>
<path d="M14.5901 1.93839L16.6104 8.11264C17.8987 7.50965 19.2569 7.06897 20.6538 6.80071L18.6335 0.626465C17.2509 0.94805 15.8982 1.38695 14.5901 1.93839Z" fill="white"/>
<path d="M28.6865 7.101C29.1796 7.23984 29.6698 7.40419 30.1345 7.5657L32.1179 1.41978C31.6532 1.25544 31.1602 1.09109 30.67 0.955078L28.6865 7.101Z" fill="white"/>
<path d="M28.6865 7.101C29.1796 7.23984 29.6698 7.40419 30.1345 7.5657L32.1179 1.41978C31.6532 1.25544 31.1602 1.09109 30.67 0.955078L28.6865 7.101Z" fill="white"/>
<path d="M8.78393 15.327C9.41829 14.2051 10.1788 13.1593 11.0508 12.2101L5.79172 8.3877C4.95712 9.36684 4.19927 10.4089 3.5249 11.5046L8.78393 15.327Z" fill="white"/>
<path d="M8.78393 15.327C9.41829 14.2051 10.1788 13.1593 11.0508 12.2101L5.79172 8.3877C4.95712 9.36684 4.19927 10.4089 3.5249 11.5046L8.78393 15.327Z" fill="white"/>
<path d="M12.13 11.1276C13.1273 10.2112 14.2274 9.41346 15.4083 8.75023L11.5831 3.50537C10.4289 4.20946 9.33259 5.00442 8.30469 5.8827L12.13 11.1276Z" fill="white"/>
<path d="M12.13 11.1276C13.1273 10.2112 14.2274 9.41346 15.4083 8.75023L11.5831 3.50537C10.4289 4.20946 9.33259 5.00442 8.30469 5.8827L12.13 11.1276Z" fill="white"/>
<path d="M46.5013 15.6611L40.3525 17.6446C40.598 18.2583 40.7988 18.889 40.9532 19.5317L47.102 17.5483C46.9093 16.9107 46.7195 16.2817 46.5013 15.6611Z" fill="white"/>
<path d="M46.5013 15.6611L40.3525 17.6446C40.598 18.2583 40.7988 18.889 40.9532 19.5317L47.102 17.5483C46.9093 16.9107 46.7195 16.2817 46.5013 15.6611Z" fill="white"/>
<path d="M6.44627 24.0144C6.44627 23.4477 6.47461 22.8385 6.52845 22.2661H0.053837C0 22.8328 0 23.4137 0 24.0144C0 24.6151 0 25.1875 0.053837 25.7627H6.51711C6.47461 25.1875 6.44627 24.6151 6.44627 24.0144Z" fill="white"/>
<path d="M6.44627 24.0144C6.44627 23.4477 6.47461 22.8385 6.52845 22.2661H0.053837C0 22.8328 0 23.4137 0 24.0144C0 24.6151 0 25.1875 0.053837 25.7627H6.51711C6.47461 25.1875 6.44627 24.6151 6.44627 24.0144Z" fill="white"/>
<path d="M41.5533 24.0141C41.5533 24.3683 41.5533 24.7509 41.5278 25.1051H48.0024V22.9204H41.5278C41.5278 23.2746 41.5533 23.6571 41.5533 24.0141Z" fill="white"/>
<path d="M41.5533 24.0141C41.5533 24.3683 41.5533 24.7509 41.5278 25.1051H48.0024V22.9204H41.5278C41.5278 23.2746 41.5533 23.6571 41.5533 24.0141Z" fill="white"/>
<path d="M6.82831 20.3535C7.07749 19.1583 7.45759 17.9943 7.96172 16.8824L1.78746 14.8989C1.31268 16.022 0.933533 17.1831 0.654053 18.37L6.82831 20.3535Z" fill="white"/>
<path d="M6.82831 20.3535C7.07749 19.1583 7.45759 17.9943 7.96172 16.8824L1.78746 14.8989C1.31268 16.022 0.933533 17.1831 0.654053 18.37L6.82831 20.3535Z" fill="white"/>
<path d="M37.6201 12.9752C38.0143 13.4634 38.3795 13.9743 38.7139 14.5053L43.9587 10.7083C43.6045 10.1898 43.2475 9.67126 42.865 9.17822L37.6201 12.9752Z" fill="white"/>
<path d="M37.6201 12.9752C38.0143 13.4634 38.3795 13.9743 38.7139 14.5053L43.9587 10.7083C43.6045 10.1898 43.2475 9.67126 42.865 9.17822L37.6201 12.9752Z" fill="white"/>
<path d="M21.7468 0.107675V6.61062C22.4912 6.52759 23.2392 6.4822 23.9881 6.47462C24.7361 6.48228 25.4832 6.52767 26.2266 6.61062V0.107675C25.8724 0.0793401 24.943 0 23.9881 0C23.0332 0 22.101 0.0765066 21.7468 0.107675Z" fill="white"/>
<path d="M21.7468 0.107675V6.61062C22.4912 6.52759 23.2392 6.4822 23.9881 6.47462C24.7361 6.48228 25.4832 6.52767 26.2266 6.61062V0.107675C25.8724 0.0793401 24.943 0 23.9881 0C23.0332 0 22.101 0.0765066 21.7468 0.107675Z" fill="white"/>
<path d="M35.436 37.292C34.782 37.8409 34.0971 38.3518 33.3845 38.8221L37.2098 44.0669C37.9219 43.5973 38.606 43.0864 39.2584 42.5368L35.436 37.292Z" fill="white"/>
<path d="M35.436 37.292C34.782 37.8409 34.0971 38.3518 33.3845 38.8221L37.2098 44.0669C37.9219 43.5973 38.606 43.0864 39.2584 42.5368L35.436 37.292Z" fill="white"/>
<path d="M7.89652 30.9819C7.46154 29.9705 7.12286 28.9202 6.88495 27.8452L0.710693 29.8287C0.976425 30.8984 1.31342 31.9492 1.71943 32.9739L7.89652 30.9819Z" fill="white"/>
<path d="M7.89652 30.9819C7.46154 29.9705 7.12286 28.9202 6.88495 27.8452L0.710693 29.8287C0.976425 30.8984 1.31342 31.9492 1.71943 32.9739L7.89652 30.9819Z" fill="white"/>
<path d="M30.6276 40.2705C29.8356 40.5903 29.0223 40.8545 28.1936 41.0611L30.1771 47.2353C31.0005 47.0137 31.812 46.7499 32.6082 46.4448L30.6276 40.2705Z" fill="white"/>
<path d="M30.6276 40.2705C29.8356 40.5903 29.0223 40.8545 28.1936 41.0611L30.1771 47.2353C31.0005 47.0137 31.812 46.7499 32.6082 46.4448L30.6276 40.2705Z" fill="white"/>
<path d="M41.0091 28.3296C40.8122 29.0712 40.5748 29.8015 40.2979 30.5171L46.4721 32.5005C46.749 31.7859 46.9865 31.0566 47.1833 30.3159L41.0346 28.3324L41.0091 28.3296Z" fill="white"/>
<path d="M41.0091 28.3296C40.8122 29.0712 40.5748 29.8015 40.2979 30.5171L46.4721 32.5005C46.749 31.7859 46.9865 31.0566 47.1833 30.3159L41.0346 28.3324L41.0091 28.3296Z" fill="white"/>
<path d="M38.8757 33.3022C38.4444 33.9862 37.9712 34.643 37.459 35.2687L42.7038 39.0685C43.2159 38.4366 43.689 37.7743 44.1206 37.085L38.8757 33.3022Z" fill="white"/>
<path d="M38.8757 33.3022C38.4444 33.9862 37.9712 34.643 37.459 35.2687L42.7038 39.0685C43.2159 38.4366 43.689 37.7743 44.1206 37.085L38.8757 33.3022Z" fill="white"/>
<path d="M11.1184 44.2798L14.9153 39.0349C14.0649 38.5234 13.2609 37.9384 12.5125 37.2866L8.68726 42.5315C9.4477 43.1692 10.2515 43.7534 11.0929 44.2798H11.1184Z" fill="white"/>
<path d="M11.1184 44.2798L14.9153 39.0349C14.0649 38.5234 13.2609 37.9384 12.5125 37.2866L8.68726 42.5315C9.4477 43.1692 10.2515 43.7534 11.0929 44.2798H11.1184Z" fill="white"/>
<path d="M10.7934 35.5438C10.1045 34.7465 9.48279 33.8935 8.93461 32.9937L3.68408 36.8274C4.24403 37.7124 4.85522 38.5639 5.51454 39.3776L10.7679 35.5438H10.7934Z" fill="white"/>
<path d="M10.7934 35.5438C10.1045 34.7465 9.48279 33.8935 8.93461 32.9937L3.68408 36.8274C4.24403 37.7124 4.85522 38.5639 5.51454 39.3776L10.7679 35.5438H10.7934Z" fill="white"/>
<path d="M19.9446 41.0894C19.0211 40.8687 18.1163 40.576 17.2386 40.2139L15.2551 46.391C16.1298 46.734 17.0239 47.0255 17.9328 47.2637L19.9163 41.0894H19.9446Z" fill="white"/>
<path d="M19.9446 41.0894C19.0211 40.8687 18.1163 40.576 17.2386 40.2139L15.2551 46.391C16.1298 46.734 17.0239 47.0255 17.9328 47.2637L19.9163 41.0894H19.9446Z" fill="white"/>
<path d="M25.3544 47.9633V41.5C24.9152 41.5255 24.4534 41.5538 24.0142 41.5538C23.5677 41.5628 23.1211 41.5448 22.6768 41.5V47.9633C23.1131 47.9633 23.5778 47.9888 24.0142 47.9888C24.4505 47.9888 24.9152 48.0001 25.3544 47.9633Z" fill="white"/>
<path d="M25.3544 47.9633V41.5C24.9152 41.5255 24.4534 41.5538 24.0142 41.5538C23.5677 41.5628 23.1211 41.5448 22.6768 41.5V47.9633C23.1131 47.9633 23.5778 47.9888 24.0142 47.9888C24.4505 47.9888 24.9152 48.0001 25.3544 47.9633Z" fill="white"/>
<path d="M21.2007 13.7682C20.872 13.8504 20.5462 13.9609 20.2458 14.0686L18.4409 8.49502C18.7696 8.38735 19.0699 8.27684 19.3986 8.19467L21.2007 13.7682ZM23.9889 7.53445C23.5962 7.52552 23.2033 7.54351 22.813 7.58829V13.4905C23.203 13.4427 23.5961 13.4238 23.9889 13.4339C24.3808 13.4238 24.7729 13.4428 25.162 13.4905V7.59396C24.7795 7.59396 24.3969 7.54012 23.9889 7.54012V7.53445ZM30.1632 8.70754C29.4574 8.43073 28.7366 8.19422 28.004 7.99915L26.1736 13.5982C26.9156 13.7611 27.6391 13.9994 28.3327 14.3094L30.1632 8.70754ZM34.5693 11.3654C34.007 10.8967 33.4135 10.4668 32.7927 10.079L29.3244 14.8336C29.955 15.2057 30.5498 15.6354 31.1011 16.1172L34.5693 11.3654ZM14.7629 10.3538C14.4626 10.5437 14.1962 10.7618 13.8874 10.9828L17.3301 15.7347C17.6098 15.5094 17.9021 15.3003 18.2057 15.1085L14.7629 10.3538ZM37.9299 15.2161C37.5506 14.6145 37.1302 14.0399 36.6718 13.4962L31.9114 16.9644C32.3845 17.4968 32.8049 18.0738 33.1667 18.6872L37.9299 15.2161ZM8.14099 19.5061L13.7145 21.3082C13.825 20.9257 13.9611 20.5177 14.0971 20.1748L8.50085 18.3585C8.36201 18.7411 8.2175 19.1236 8.11832 19.5061H8.14099ZM34.5693 25.0116H40.4347C40.4347 24.683 40.463 24.3571 40.463 24.0284C40.463 23.6997 40.463 23.371 40.4347 23.0452H34.5693C34.5976 23.371 34.6231 23.6997 34.6231 24.0284C34.6321 24.3571 34.6141 24.6859 34.5693 25.0116ZM11.0114 13.8504C10.7679 14.1482 10.54 14.4585 10.3285 14.7798L15.0803 18.2112C15.2985 17.8825 15.5195 17.5821 15.7632 17.2818L11.0114 13.8504ZM13.4142 23.3569H7.54028V24.6688H13.4142V23.3569ZM13.7145 36.8813C14.0971 37.1958 14.5079 37.4792 14.916 37.7625L18.3587 33.0022C17.9418 32.7336 17.5407 32.4412 17.1573 32.1266L13.7145 36.8813ZM18.1688 39.4315C18.6597 39.6232 19.1611 39.7869 19.6706 39.9217L21.5011 34.3226C20.9911 34.1882 20.4897 34.0236 19.9993 33.8296L18.1688 39.4315ZM10.235 33.1212C10.4971 33.5144 10.7809 33.8928 11.085 34.2546L15.8369 30.8119C15.5365 30.4548 15.2701 30.0468 14.9868 29.6785L10.235 33.1212ZM8.10416 28.4742C8.21183 28.9134 8.38751 29.3498 8.51218 29.7606L14.1141 27.9557C13.9487 27.5374 13.8115 27.1086 13.7032 26.6721L8.12966 28.4742H8.10416ZM23.9719 40.4969H24.7908V34.6145C24.5074 34.6145 24.2439 34.6428 23.9719 34.6428C23.6977 34.6475 23.4234 34.6381 23.1502 34.6145V40.4884L23.9719 40.4969ZM39.953 19.9255C39.7891 19.2553 39.5789 18.5973 39.324 17.9562L33.7249 19.7866C34.0036 20.4239 34.2144 21.0887 34.3539 21.7701L39.953 19.9255ZM28.276 39.9415C28.8229 39.8055 29.3698 39.6128 29.9166 39.423L28.0862 33.8211C27.5546 34.0391 27.0059 34.2126 26.4456 34.3396L28.276 39.9415ZM39.341 30.0242C39.5832 29.4283 39.7848 28.8168 39.9445 28.1937L34.3426 26.3632C34.2128 26.9943 34.0113 27.6084 33.7419 28.1937L39.341 30.0242ZM36.7738 34.4218C37.1684 33.9438 37.5337 33.4423 37.8675 32.92L33.1129 29.4518C32.7889 29.9834 32.4232 30.4884 32.0191 30.9621L36.7738 34.4218ZM32.9485 37.8645C33.4416 37.5387 33.9318 37.1816 34.3965 36.8275L30.9282 32.0728C30.4796 32.4645 29.9948 32.8128 29.4803 33.1127L32.923 37.8645H32.9485Z" fill="white"/>
<path d="M56.2793 19.6421H59.6144V38.9582H56.2793V19.6421Z" fill="white"/>
<path d="M63.5471 29.4238C63.5471 23.6037 67.9476 19.2061 73.6571 19.2061C79.3667 19.2061 80.0496 20.654 81.9084 23.3033L79.2562 25.3265C77.7006 23.2212 75.7596 22.2379 73.6288 22.2379C69.9452 22.2379 67.0182 25.1621 67.0182 29.3218C67.0182 33.4814 70.0217 36.4056 73.6826 36.4056C77.3436 36.4056 78.1653 35.2297 79.6671 33.181L82.2172 35.0398C80.3584 37.8535 77.2444 39.4374 73.6656 39.4374C67.8456 39.4374 63.584 35.1871 63.584 29.4379L63.5471 29.4238Z" fill="white"/>
<path d="M103.736 30.0524H87.6186C87.9019 34.1214 90.5966 36.4449 94.4757 36.4449C98.3548 36.4449 99.2304 35.3795 100.868 33.1665L103.274 34.9969C101.415 37.7823 98.301 39.3946 94.4219 39.3946C88.3836 39.3946 84.2212 35.3256 84.2212 29.4234C84.2212 23.5212 88.565 19.1519 94.4389 19.1519C100.313 19.1519 103.866 22.9204 103.866 28.5762C103.866 34.2319 103.838 29.5594 103.756 30.0241L103.736 30.0524ZM87.8084 27.1566H100.432C99.9388 23.8215 97.7258 22.0562 94.4219 22.0562C91.118 22.0562 88.5735 23.9037 87.8084 27.1566Z" fill="white"/>
<path d="M106.47 36.346L108.601 33.8326C110.356 35.4807 112.667 36.4073 115.075 36.4281C117.314 36.4281 119.226 35.2551 119.226 33.6428C119.226 32.0305 118.376 31.5941 115.922 31.0189L112.522 30.2539C108.643 29.3812 107.002 27.7037 107.002 25.0912C107.002 22.4787 109.901 19.189 114.406 19.189C118.912 19.189 120.419 20.2827 122.25 22.2775L120.008 24.5982C119.252 23.8233 118.347 23.2095 117.347 22.7937C116.347 22.3778 115.274 22.1685 114.191 22.1783C111.953 22.1783 110.286 23.2437 110.286 24.7993C110.286 26.355 110.995 26.6581 113.673 27.2588L117.073 28.0239C120.98 28.8995 122.507 30.6732 122.507 33.3509C122.507 36.0286 119.722 39.3892 114.967 39.3892C110.213 39.3892 108.45 38.2161 106.498 36.3035L106.47 36.346Z" fill="white"/>
<path d="M126.33 19.6421H129.665V38.9582H126.33V19.6421Z" fill="white"/>
<path d="M56.2793 12.2922V8.93164H57.2909V12.21C57.2909 13.2216 57.7839 13.7146 58.6311 13.7146C59.4783 13.7146 59.9686 13.2216 59.9686 12.21V8.93164H60.9801V12.2922C60.9801 13.7968 60.0791 14.644 58.6311 14.644C57.1832 14.644 56.2793 13.794 56.2793 12.2922Z" fill="white"/>
<path d="M66.1149 12.074V14.5278H65.1714V12.261C65.1714 11.5498 64.8427 11.1956 64.2958 11.1956C64.0987 11.1754 63.8999 11.2106 63.7217 11.2972C63.5435 11.3838 63.393 11.5183 63.2871 11.6858V14.5193H62.3293V10.4362H63.2871V10.7904C63.6435 10.5061 64.0864 10.3522 64.5423 10.354C65.5001 10.354 66.1263 10.9831 66.1263 12.1023L66.1149 12.074Z" fill="white"/>
<path d="M67.262 9.26012C67.2634 9.17926 67.2809 9.09949 67.3134 9.02542C67.3459 8.95135 67.3927 8.88445 67.4512 8.82859C67.5097 8.77273 67.5787 8.72903 67.6542 8.69999C67.7297 8.67095 67.8102 8.65716 67.891 8.65942C67.9704 8.65748 68.0494 8.67168 68.1232 8.70118C68.1969 8.73069 68.2639 8.77488 68.3201 8.83105C68.3763 8.88722 68.4204 8.95422 68.4499 9.02798C68.4794 9.10174 68.4937 9.18071 68.4917 9.26012C68.4919 9.42216 68.4295 9.57802 68.3176 9.6952C68.2057 9.81239 68.0529 9.88188 67.891 9.88918C67.7249 9.88698 67.5661 9.82 67.4486 9.7025C67.3311 9.58501 67.2642 9.42627 67.262 9.26012ZM67.4008 10.436H68.3557V14.5277H67.4008V10.436Z" fill="white"/>
<path d="M73.6013 10.436L71.9012 14.5333H70.8612L69.1611 10.436H70.2265L71.3741 13.3574L72.5387 10.436H73.6013Z" fill="white"/>
<path d="M78.2728 12.7315H75.0228C75.0305 12.8866 75.0696 13.0386 75.1375 13.1782C75.2054 13.3179 75.3009 13.4424 75.4181 13.5443C75.5353 13.6461 75.6719 13.7233 75.8197 13.7711C75.9674 13.8189 76.1233 13.8364 76.278 13.8224C76.9892 13.8224 77.1536 13.6609 77.4823 13.2557L78.1651 13.7743C77.9411 14.0659 77.6507 14.2998 77.318 14.4565C76.9853 14.6132 76.62 14.6883 76.2525 14.6753C74.9123 14.6753 74.0395 13.8026 74.0395 12.5445C74.0288 12.2547 74.078 11.9658 74.184 11.6959C74.29 11.426 74.4505 11.1809 74.6555 10.9759C74.8606 10.7708 75.1057 10.6103 75.3756 10.5043C75.6455 10.3983 75.9344 10.3491 76.2242 10.3598C77.5078 10.3598 78.2728 11.1504 78.2728 12.3801V12.7315ZM75.0879 11.992H77.3548C77.3235 11.7391 77.1944 11.5086 76.9953 11.3498C76.7962 11.1909 76.5428 11.1163 76.2893 11.1419C76.0253 11.1244 75.7635 11.1998 75.5493 11.3551C75.335 11.5103 75.1818 11.7356 75.1163 11.992H75.0879Z" fill="white"/>
<path d="M81.9085 10.3796L81.8518 11.2835C81.7158 11.2835 81.5685 11.2551 81.4693 11.2551C81.2437 11.251 81.021 11.3072 80.8243 11.4177C80.6276 11.5283 80.4639 11.6893 80.3501 11.8842V14.5619H79.3923V10.4618H80.3501V10.901C80.487 10.7283 80.6616 10.5893 80.8605 10.4946C81.0594 10.3998 81.2773 10.3517 81.4976 10.3541C81.934 10.3541 81.781 10.3541 81.934 10.4079L81.9085 10.3796Z" fill="white"/>
<path d="M82.5636 14.0433L83.0538 13.3321C83.4438 13.6413 83.9248 13.8135 84.4224 13.8223C84.8871 13.8223 85.1308 13.6324 85.1308 13.3859C85.1308 13.1394 84.9948 13.0572 84.5641 12.9495L83.8529 12.7852C83.034 12.5925 82.6798 12.2383 82.6798 11.6518C82.6798 11.0652 83.306 10.3398 84.3176 10.3398C85.3292 10.3398 85.6012 10.558 86.0177 10.9406L85.4992 11.6234C85.154 11.3333 84.7202 11.1693 84.2694 11.1587C83.8302 11.1587 83.612 11.3231 83.612 11.5696C83.612 11.8161 83.7509 11.87 84.1787 11.9776L84.89 12.142C85.74 12.3347 86.0631 12.7087 86.0631 13.2754C86.0631 13.8421 85.434 14.6156 84.3629 14.6156C83.2919 14.6156 82.9717 14.3691 82.5325 14.0149L82.5636 14.0433Z" fill="white"/>
<path d="M86.9612 9.26012C86.9626 9.17926 86.9801 9.09949 87.0126 9.02542C87.0451 8.95135 87.0919 8.88445 87.1504 8.82859C87.2089 8.77273 87.2779 8.72903 87.3534 8.69999C87.4289 8.67095 87.5094 8.65716 87.5902 8.65942C87.6695 8.65788 87.7483 8.67237 87.8219 8.70201C87.8955 8.73166 87.9623 8.77584 88.0184 8.83193C88.0745 8.88802 88.1187 8.95487 88.1483 9.02845C88.178 9.10203 88.1925 9.18082 88.1909 9.26012C88.1909 9.4232 88.1262 9.5796 88.0108 9.69491C87.8955 9.81022 87.7391 9.87501 87.5761 9.87501C87.413 9.87501 87.2566 9.81022 87.1413 9.69491C87.026 9.5796 86.9612 9.4232 86.9612 9.26012ZM87.1 10.436H88.0549V14.5277H87.1V10.436Z" fill="white"/>
<path d="M93.3275 8.60547V14.5275H92.3726V14.2442C92.0444 14.5191 91.6275 14.6651 91.1995 14.6551C90.646 14.6267 90.1245 14.3868 89.7428 13.985C89.361 13.5832 89.1482 13.0501 89.1482 12.4959C89.1482 11.9417 89.361 11.4086 89.7428 11.0068C90.1245 10.605 90.646 10.3651 91.1995 10.3368C92.3188 10.3368 92.0722 10.4728 92.3726 10.7476V8.60547H93.3275ZM92.3726 13.278V11.694C92.2452 11.5442 92.086 11.4248 91.9066 11.3444C91.7272 11.264 91.5321 11.2247 91.3355 11.2293C91.0126 11.2447 90.7079 11.3838 90.4848 11.6178C90.2616 11.8517 90.1371 12.1627 90.1371 12.486C90.1371 12.8093 90.2616 13.1202 90.4848 13.3542C90.7079 13.5882 91.0126 13.7273 91.3355 13.7427C92.0184 13.7427 92.1006 13.5811 92.3726 13.2525V13.278Z" fill="white"/>
<path d="M98.5725 10.4361V14.5277H97.6176V14.2443C97.2883 14.5192 96.8705 14.6652 96.4417 14.6552C95.8882 14.6268 95.3667 14.387 94.985 13.9852C94.6032 13.5834 94.3904 13.0503 94.3904 12.4961C94.3904 11.9418 94.6032 11.4087 94.985 11.0069C95.3667 10.6051 95.8882 10.3653 96.4417 10.3369C97.5609 10.3369 97.3173 10.4729 97.6176 10.7478V10.4474L98.5725 10.4361ZM97.6176 13.2696V11.6942C97.4896 11.5445 97.3298 11.4251 97.15 11.3448C96.9701 11.2644 96.7747 11.225 96.5777 11.2295C96.2547 11.2448 95.9501 11.3839 95.7269 11.6179C95.5038 11.8519 95.3793 12.1628 95.3793 12.4861C95.3793 12.8095 95.5038 13.1204 95.7269 13.3544C95.9501 13.5884 96.2547 13.7275 96.5777 13.7428C97.2606 13.7428 97.3428 13.5813 97.6176 13.2526V13.2696Z" fill="white"/>
<path d="M103.846 8.60547V14.5275H102.891V14.2442C102.562 14.5186 102.144 14.6645 101.715 14.6551C101.162 14.6267 100.64 14.3868 100.259 13.985C99.8769 13.5832 99.6641 13.0501 99.6641 12.4959C99.6641 11.9417 99.8769 11.4086 100.259 11.0068C100.64 10.605 101.162 10.3651 101.715 10.3368C102.835 10.3368 102.588 10.4728 102.891 10.7476V8.60547H103.846ZM102.891 13.278V11.694C102.763 11.5443 102.604 11.425 102.424 11.3446C102.244 11.2643 102.048 11.2249 101.851 11.2293C101.528 11.2447 101.224 11.3838 101.001 11.6178C100.777 11.8517 100.653 12.1627 100.653 12.486C100.653 12.8093 100.777 13.1202 101.001 13.3542C101.224 13.5882 101.528 13.7273 101.851 13.7427C102.534 13.7427 102.616 13.5811 102.891 13.2525V13.278Z" fill="white"/>
<path d="M148.508 0V48" stroke="white" stroke-miterlimit="10"/>
<path d="M168.408 39.3949V20.127H170.479V39.3949H168.408Z" fill="white"/>
<path d="M175.032 39.3949V20.127H176.846L188.146 36.3461H187.449V20.1128H189.517V39.3808H187.707L176.395 23.0512H177.095V39.3808L175.032 39.3949Z" fill="white"/>
<path d="M194.096 39.3949V20.127H195.907L207.204 36.3461H206.504V20.1128H208.575V39.3808H206.765L195.453 23.0512H196.153V39.3808L194.096 39.3949Z" fill="white"/>
<path d="M213.129 39.3949V20.127H215.2V37.4681H223.741V39.4091L213.129 39.3949Z" fill="white"/>
<path d="M224.88 39.3949L231.921 20.127H234.146L241.187 39.3949H239.011L237.356 34.6856H228.737L227.053 39.3949H224.88ZM229.414 32.7446H236.634L232.726 21.6656H233.347L229.414 32.7446Z" fill="white"/>
<path d="M243.749 39.3947V20.1267H251.85C252.829 20.1036 253.8 20.3124 254.683 20.7359C255.453 21.1148 256.1 21.7043 256.548 22.436C256.994 23.2314 257.221 24.1306 257.207 25.0423C257.193 25.9539 256.938 26.8457 256.468 27.6271C255.96 28.41 255.224 29.0189 254.36 29.3725L254.335 28.752C255.057 29.0052 255.721 29.4012 256.287 29.9166C256.827 30.4085 257.257 31.0083 257.549 31.677C257.842 32.3457 257.991 33.0685 257.987 33.7985C257.987 35.5232 257.439 36.8908 256.344 37.9014C255.248 38.9121 253.76 39.4164 251.878 39.4146L243.749 39.3947ZM245.82 28.2674H251.694C252.149 28.2884 252.604 28.219 253.033 28.0634C253.461 27.9078 253.855 27.669 254.19 27.3607C254.503 27.061 254.749 26.6986 254.912 26.2972C255.075 25.8958 255.152 25.4645 255.137 25.0316C255.137 24.0644 254.821 23.3267 254.19 22.8186C253.473 22.2802 252.59 22.0096 251.694 22.0535H245.82V28.2674ZM245.82 37.4537H251.875C253.099 37.4537 254.079 37.1307 254.814 36.4847C255.549 35.8386 255.915 34.9451 255.913 33.8042C255.935 33.3048 255.848 32.8066 255.659 32.3442C255.469 31.8817 255.18 31.4662 254.814 31.1265C254.081 30.4634 253.101 30.131 251.875 30.1291H245.82V37.4537Z" fill="white"/>
<path d="M274.733 27.8906C274.344 27.8946 273.958 27.8184 273.6 27.6668C273.261 27.5232 272.955 27.3099 272.704 27.0405C272.448 26.7657 272.247 26.4432 272.115 26.0913C271.835 25.3138 271.835 24.4632 272.115 23.6856C272.249 23.3335 272.449 23.0103 272.704 22.7336C272.955 22.4626 273.26 22.2481 273.6 22.1045C273.958 21.9529 274.344 21.8767 274.733 21.8807C275.099 21.8749 275.463 21.9473 275.798 22.0932C276.096 22.2207 276.367 22.4045 276.595 22.6344C276.795 22.8342 276.953 23.0722 277.059 23.3343L276.473 23.5921C276.333 23.2622 276.102 22.979 275.807 22.7761C275.49 22.5646 275.114 22.4567 274.733 22.4672C274.334 22.4619 273.942 22.5678 273.6 22.7732C273.264 22.9777 272.993 23.2722 272.818 23.6233C272.633 24.02 272.537 24.4523 272.537 24.8899C272.537 25.3275 272.633 25.7598 272.818 26.1565C272.993 26.5079 273.264 26.8026 273.6 27.0065C273.943 27.2077 274.335 27.3115 274.733 27.3069C275.114 27.3172 275.489 27.2104 275.807 27.0009C276.104 26.8011 276.336 26.5183 276.473 26.1877L277.059 26.4455C276.953 26.7049 276.795 26.9401 276.595 27.1369C276.367 27.3677 276.096 27.5524 275.798 27.6809C275.462 27.8258 275.099 27.8973 274.733 27.8906Z" fill="white"/>
<path d="M279.918 27.8904C279.546 27.8959 279.18 27.7978 278.861 27.6071C278.546 27.4172 278.288 27.1461 278.113 26.8222C277.924 26.4745 277.826 26.0845 277.83 25.6888C277.82 25.2944 277.911 24.9041 278.096 24.5554C278.264 24.2396 278.513 23.9745 278.818 23.7875C279.127 23.5981 279.482 23.4998 279.844 23.5042C280.112 23.4965 280.377 23.5482 280.622 23.6555C280.867 23.7628 281.085 23.9231 281.261 24.1247C281.593 24.5046 281.776 24.9917 281.777 25.4961C281.777 25.5471 281.777 25.6066 281.777 25.6718C281.773 25.7383 281.766 25.8046 281.754 25.8702H278.215V25.3233H281.42L281.136 25.5585C281.187 25.2978 281.153 25.0279 281.04 24.7877C280.932 24.5671 280.766 24.3807 280.558 24.2494C280.348 24.116 280.104 24.0471 279.856 24.051C279.601 24.0486 279.35 24.1183 279.133 24.2522C278.911 24.3898 278.732 24.5859 278.614 24.8189C278.487 25.0831 278.435 25.3772 278.464 25.669C278.432 25.9685 278.489 26.2708 278.626 26.5389C278.749 26.7744 278.935 26.9715 279.163 27.1085C279.391 27.2454 279.652 27.317 279.918 27.3152C280.192 27.3262 280.463 27.2498 280.691 27.0971C280.899 26.9546 281.072 26.7678 281.199 26.5502L281.7 26.8165C281.608 27.013 281.478 27.1893 281.318 27.3351C281.138 27.4996 280.93 27.6293 280.703 27.7176C280.455 27.8262 280.188 27.8849 279.918 27.8904Z" fill="white"/>
<path d="M282.817 27.7941V23.609H283.403V24.4194L283.27 24.3882C283.369 24.1256 283.548 23.9013 283.783 23.7479C284.028 23.5899 284.314 23.5089 284.605 23.5155C284.885 23.5104 285.162 23.5798 285.407 23.7167C285.644 23.8504 285.84 24.0464 285.973 24.2834C286.114 24.5269 286.187 24.804 286.183 25.0853V27.8026H285.597V25.295C285.603 25.071 285.557 24.8486 285.461 24.6461C285.373 24.4756 285.24 24.3332 285.075 24.2352C284.903 24.1361 284.707 24.0861 284.509 24.0907C284.31 24.0885 284.115 24.1383 283.942 24.2352C283.775 24.3332 283.639 24.4767 283.551 24.6489C283.453 24.85 283.406 25.0716 283.412 25.295V27.7856L282.817 27.7941Z" fill="white"/>
<path d="M288.895 27.8454C288.736 27.8549 288.576 27.8304 288.427 27.7738C288.277 27.7172 288.141 27.6296 288.028 27.5167C287.81 27.255 287.701 26.9189 287.725 26.5788V24.1958H286.951V23.6121H287.144C287.223 23.6158 287.302 23.602 287.375 23.5716C287.448 23.5412 287.513 23.4951 287.566 23.4365C287.673 23.3142 287.729 23.1565 287.725 22.9944V22.6431H288.309V23.6121H289.232V24.1958H288.309V26.5788C288.307 26.7053 288.328 26.8311 288.371 26.95C288.412 27.0568 288.488 27.1466 288.586 27.205C288.712 27.2732 288.854 27.3056 288.997 27.2985H289.145H289.295V27.8199C289.225 27.8377 289.154 27.8501 289.082 27.8567C289.02 27.8564 288.957 27.8526 288.895 27.8454Z" fill="white"/>
<path d="M290.326 27.7941V23.609H290.909V24.2947L290.833 24.1927C290.932 23.9952 291.088 23.8322 291.281 23.7251C291.505 23.6051 291.757 23.5455 292.012 23.5523H292.278V24.1388H291.91C291.776 24.1331 291.642 24.1554 291.517 24.2042C291.392 24.253 291.279 24.3272 291.184 24.4222C291.086 24.5298 291.011 24.6559 290.962 24.7931C290.913 24.9303 290.893 25.0759 290.901 25.2212V27.7969L290.326 27.7941Z" fill="white"/>
<path d="M294.924 27.8905C294.549 27.8939 294.18 27.7965 293.855 27.6086C293.53 27.4208 293.261 27.1492 293.077 26.8223C292.892 26.4772 292.795 26.0918 292.795 25.7002C292.795 25.3087 292.892 24.9232 293.077 24.5781C293.26 24.2496 293.529 23.9771 293.855 23.7899C294.181 23.6027 294.551 23.5078 294.927 23.5156C295.31 23.5098 295.687 23.6077 296.018 23.7989C296.336 23.9834 296.597 24.2508 296.775 24.5725C296.962 24.921 297.06 25.3104 297.06 25.7059C297.06 26.1014 296.962 26.4908 296.775 26.8393C296.591 27.1636 296.324 27.4328 296.001 27.6191C295.678 27.8054 295.311 27.9021 294.939 27.8991L294.924 27.8905ZM294.924 27.304C295.194 27.307 295.458 27.2333 295.687 27.0915C295.914 26.9539 296.101 26.7583 296.228 26.5248C296.361 26.2726 296.429 25.9911 296.426 25.7059C296.43 25.4224 296.362 25.1426 296.228 24.8927C296.099 24.6602 295.913 24.465 295.687 24.326C295.457 24.1869 295.194 24.1134 294.926 24.1134C294.658 24.1134 294.395 24.1869 294.165 24.326C293.939 24.4656 293.751 24.6607 293.621 24.8927C293.483 25.1412 293.413 25.4216 293.417 25.7059C293.413 25.9919 293.484 26.274 293.621 26.5248C293.75 26.7579 293.937 26.9533 294.165 27.0915C294.393 27.2328 294.656 27.3065 294.924 27.304Z" fill="white"/>
<path d="M301.301 27.8903C300.93 27.8963 300.564 27.7981 300.246 27.6069C299.935 27.4169 299.679 27.1469 299.507 26.8249C299.33 26.4773 299.238 26.0928 299.238 25.7028C299.238 25.3128 299.33 24.9283 299.507 24.5807C299.679 24.2602 299.933 23.9913 300.244 23.8015C300.562 23.6098 300.929 23.5116 301.301 23.5181C301.635 23.5115 301.966 23.5916 302.261 23.7505C302.536 23.8989 302.766 24.1181 302.927 24.3852L302.831 24.5467V21.8945H303.417V27.8081H302.831V26.873L302.927 26.958C302.786 27.2534 302.558 27.498 302.272 27.6579C301.975 27.8194 301.639 27.8995 301.301 27.8903ZM301.332 27.3037C301.601 27.3067 301.865 27.233 302.094 27.0912C302.32 26.9526 302.505 26.7572 302.632 26.5245C302.763 26.2717 302.83 25.9914 302.83 25.707C302.83 25.4227 302.763 25.1424 302.632 24.8896C302.505 24.6569 302.32 24.4615 302.094 24.3229C301.865 24.1811 301.601 24.1074 301.332 24.1104C301.067 24.1074 300.807 24.1812 300.584 24.3229C300.359 24.4607 300.176 24.6565 300.054 24.8896C299.929 25.1445 299.864 25.4246 299.864 25.7085C299.864 25.9923 299.929 26.2724 300.054 26.5273C300.175 26.7592 300.356 26.9548 300.578 27.094C300.803 27.2358 301.065 27.3087 301.332 27.3037Z" fill="white"/>
<path d="M306.528 27.8906C306.155 27.896 305.788 27.7979 305.468 27.6072C305.154 27.4171 304.896 27.146 304.723 26.8223C304.543 26.4716 304.449 26.0831 304.449 25.6889C304.449 25.2948 304.543 24.9063 304.723 24.5555C304.891 24.2397 305.14 23.9746 305.445 23.7876C305.755 23.5982 306.111 23.5 306.474 23.5043C306.752 23.4987 307.028 23.5559 307.281 23.6715C307.513 23.7785 307.72 23.9329 307.888 24.1248C308.052 24.3141 308.182 24.5309 308.27 24.7652C308.358 24.9989 308.403 25.2465 308.403 25.4963C308.403 25.5473 308.403 25.6068 308.403 25.6719C308.403 25.7371 308.403 25.8023 308.381 25.8703H304.842V25.3234H308.044L307.76 25.5586C307.81 25.2977 307.775 25.0277 307.661 24.7879C307.555 24.5673 307.389 24.3809 307.182 24.2495C306.972 24.1167 306.728 24.0478 306.48 24.0511C306.225 24.0487 305.974 24.1184 305.757 24.2523C305.534 24.3888 305.353 24.5851 305.236 24.819C305.109 25.0835 305.058 25.3776 305.088 25.6691C305.056 25.9683 305.111 26.2706 305.247 26.539C305.37 26.775 305.557 26.9723 305.785 27.1093C306.014 27.2463 306.275 27.3176 306.542 27.3154C306.816 27.3254 307.087 27.2491 307.315 27.0972C307.522 26.9538 307.695 26.7672 307.823 26.5503L308.321 26.8167C308.231 27.0143 308.101 27.191 307.939 27.3352C307.76 27.4991 307.552 27.6287 307.327 27.7177C307.075 27.8279 306.803 27.8866 306.528 27.8906Z" fill="white"/>
<path d="M272.075 36.7058V30.8857H272.702V36.7058H272.075Z" fill="white"/>
<path d="M274.002 36.7057V32.5177H274.569V33.3309L274.438 33.2998C274.534 33.0363 274.713 32.8114 274.948 32.6594C275.193 32.4997 275.481 32.4177 275.773 32.4242C276.053 32.4204 276.33 32.4898 276.575 32.6254C276.811 32.7602 277.007 32.9559 277.142 33.1921C277.282 33.4347 277.353 33.7109 277.348 33.9911V36.7113H276.762V34.2178C276.768 33.9938 276.722 33.7714 276.626 33.5689C276.54 33.3989 276.407 33.2572 276.243 33.1609C276.071 33.0626 275.875 33.0127 275.677 33.0164C275.478 33.0142 275.283 33.064 275.11 33.1609C274.942 33.2574 274.806 33.4013 274.719 33.5746C274.62 33.7743 274.572 33.9951 274.577 34.2178V36.7113L274.002 36.7057Z" fill="white"/>
<path d="M278.465 36.7057V32.5177H279.051V33.3309L278.918 33.2998C279.016 33.0367 279.195 32.8121 279.431 32.6594C279.676 32.4997 279.963 32.4177 280.255 32.4242C280.535 32.42 280.81 32.4894 281.054 32.6254C281.291 32.7598 281.487 32.9556 281.621 33.1921C281.761 33.4347 281.833 33.7109 281.828 33.9911V36.7113H281.241V34.2178C281.248 33.9938 281.201 33.7714 281.105 33.5689C281.02 33.3989 280.887 33.2572 280.723 33.1609C280.549 33.0667 280.354 33.0173 280.156 33.0173C279.958 33.0173 279.764 33.0667 279.59 33.1609C279.421 33.2574 279.285 33.4013 279.198 33.5746C279.1 33.7743 279.051 33.9951 279.057 34.2178V36.7113L278.465 36.7057Z" fill="white"/>
<path d="M284.903 36.7991C284.527 36.8024 284.158 36.7051 283.833 36.5172C283.508 36.3293 283.24 36.0578 283.055 35.7309C282.87 35.3858 282.773 35.0003 282.773 34.6088C282.773 34.2173 282.87 33.8318 283.055 33.4867C283.237 33.1649 283.5 32.8962 283.818 32.7075C284.148 32.5155 284.524 32.4175 284.906 32.4241C285.288 32.4184 285.665 32.5163 285.996 32.7075C286.314 32.892 286.576 33.1594 286.753 33.4811C286.94 33.8296 287.038 34.219 287.038 34.6145C287.038 35.01 286.94 35.3994 286.753 35.7479C286.57 36.0698 286.305 36.3376 285.985 36.5243C285.657 36.7139 285.282 36.8091 284.903 36.7991ZM284.903 36.2126C285.171 36.2155 285.436 36.1428 285.665 36.0029C285.891 35.8641 286.076 35.6687 286.203 35.4362C286.339 35.1848 286.408 34.903 286.405 34.6173C286.409 34.3334 286.339 34.0533 286.203 33.8041C286.075 33.5724 285.89 33.3773 285.665 33.2374C285.434 33.1002 285.171 33.0277 284.903 33.0277C284.634 33.0277 284.371 33.1002 284.141 33.2374C283.915 33.3779 283.729 33.5728 283.599 33.8041C283.461 34.0526 283.391 34.333 283.395 34.6173C283.391 34.9033 283.461 35.1855 283.599 35.4362C283.728 35.6683 283.915 35.8635 284.141 36.0029C284.37 36.1428 284.634 36.2155 284.903 36.2126Z" fill="white"/>
<path d="M289.099 36.706L287.467 32.5181H288.122L289.496 36.2017H289.286L290.669 32.5181H291.332L289.686 36.706H289.099Z" fill="white"/>
<path d="M293.075 36.7992C292.829 36.8036 292.586 36.7512 292.364 36.6462C292.165 36.5521 291.995 36.4075 291.871 36.2269C291.75 36.0467 291.688 35.8342 291.692 35.6177C291.69 35.4107 291.739 35.2064 291.834 35.0226C291.935 34.8328 292.086 34.6741 292.27 34.5636C292.504 34.4266 292.762 34.3361 293.029 34.2972L294.67 34.0139V34.5438L293.168 34.796C292.926 34.8181 292.698 34.9174 292.517 35.0793C292.452 35.1451 292.401 35.2231 292.367 35.3087C292.333 35.3943 292.317 35.4859 292.318 35.578C292.318 35.6688 292.337 35.7586 292.375 35.8409C292.413 35.9232 292.469 35.996 292.539 36.054C292.698 36.1858 292.9 36.2553 293.106 36.2495C293.368 36.2564 293.628 36.1928 293.857 36.0654C294.065 35.9487 294.238 35.7772 294.356 35.5695C294.476 35.3581 294.537 35.1184 294.534 34.8753V33.8127C294.536 33.6963 294.512 33.5809 294.463 33.4753C294.414 33.3698 294.341 33.2768 294.251 33.2035C294.05 33.0407 293.797 32.957 293.54 32.9683C293.301 32.9639 293.067 33.031 292.868 33.161C292.68 33.2819 292.531 33.4539 292.437 33.6569L291.907 33.3735C291.992 33.1853 292.119 33.0194 292.279 32.889C292.447 32.7428 292.639 32.6251 292.845 32.5405C293.062 32.4557 293.293 32.4124 293.525 32.4129C293.808 32.4074 294.087 32.4686 294.341 32.5915C294.572 32.7015 294.768 32.8731 294.908 33.0873C295.043 33.307 295.112 33.5607 295.106 33.8184V36.6944H294.52V35.8585L294.608 35.9435C294.527 36.1084 294.411 36.2535 294.268 36.3686C294.107 36.5001 293.925 36.6035 293.729 36.6746C293.52 36.7523 293.298 36.7944 293.075 36.7992Z" fill="white"/>
<path d="M298.246 36.7989C297.872 36.8095 297.503 36.7143 297.182 36.5243C296.86 36.3343 296.598 36.0572 296.427 35.725C296.244 35.3758 296.152 34.9859 296.16 34.5916C296.153 34.2029 296.245 33.8188 296.427 33.4752C296.597 33.1543 296.851 32.8851 297.161 32.696C297.489 32.5023 297.865 32.4041 298.246 32.4126C298.497 32.4102 298.747 32.4574 298.98 32.5515C299.204 32.6432 299.41 32.7715 299.592 32.9312C299.763 33.0831 299.898 33.2707 299.989 33.4809L299.459 33.7642C299.354 33.5404 299.188 33.3508 298.98 33.2173C298.762 33.075 298.506 33.0019 298.246 33.0077C297.983 33.0038 297.724 33.0756 297.501 33.2145C297.278 33.352 297.096 33.548 296.977 33.7812C296.852 34.0366 296.787 34.3172 296.787 34.6015C296.787 34.8858 296.852 35.1664 296.977 35.4218C297.099 35.6529 297.28 35.8482 297.501 35.9885C297.724 36.1284 297.983 36.2012 298.246 36.1982C298.505 36.2031 298.76 36.13 298.977 35.9885C299.187 35.8484 299.354 35.6521 299.459 35.4218L299.989 35.7052C299.897 35.9136 299.762 36.1 299.592 36.252C299.412 36.4145 299.205 36.544 298.98 36.6346C298.749 36.7374 298.499 36.7932 298.246 36.7989Z" fill="white"/>
<path d="M301.019 31.7441V30.894H301.606V31.7441H301.019ZM301.019 36.7056V32.5176H301.606V36.7056H301.019Z" fill="white"/>
<path d="M304.769 36.7991C304.393 36.8024 304.024 36.7051 303.699 36.5172C303.374 36.3293 303.106 36.0578 302.921 35.7309C302.736 35.3858 302.639 35.0003 302.639 34.6088C302.639 34.2173 302.736 33.8318 302.921 33.4867C303.103 33.1649 303.366 32.8962 303.683 32.7075C304.013 32.5155 304.39 32.4175 304.772 32.4241C305.154 32.4184 305.531 32.5163 305.862 32.7075C306.18 32.892 306.442 33.1594 306.619 33.4811C306.806 33.8296 306.904 34.2189 306.904 34.6145C306.904 35.01 306.806 35.3994 306.619 35.7479C306.436 36.0698 306.171 36.3376 305.851 36.5243C305.523 36.7139 305.148 36.809 304.769 36.7991ZM304.769 36.2126C305.037 36.2155 305.302 36.1428 305.531 36.0029C305.757 35.8641 305.942 35.6687 306.069 35.4362C306.205 35.1848 306.274 34.9029 306.27 34.6173C306.275 34.3334 306.205 34.0533 306.069 33.8041C305.941 33.5724 305.756 33.3773 305.531 33.2374C305.3 33.1002 305.037 33.0277 304.769 33.0277C304.5 33.0277 304.237 33.1002 304.006 33.2374C303.774 33.3842 303.583 33.5886 303.452 33.8309C303.322 34.0731 303.256 34.345 303.261 34.6201C303.257 34.9062 303.327 35.1884 303.465 35.439C303.595 35.6706 303.781 35.8655 304.006 36.0057C304.236 36.1447 304.5 36.2163 304.769 36.2126ZM304.485 31.7044L305.165 30.5342H305.97L305.08 31.7044H304.485Z" fill="white"/>
<path d="M307.925 36.7057V32.5177H308.512V33.331L308.378 33.2998C308.476 33.0367 308.656 32.8121 308.891 32.6594C309.135 32.4993 309.422 32.4173 309.713 32.4242C309.993 32.4205 310.27 32.4898 310.515 32.6254C310.751 32.7598 310.947 32.9556 311.082 33.1921C311.221 33.4353 311.292 33.7112 311.288 33.9912V36.7114H310.702V34.2179C310.709 33.9939 310.662 33.7715 310.566 33.569C310.479 33.4001 310.346 33.2588 310.183 33.161C310.011 33.0626 309.815 33.0127 309.617 33.0165C309.418 33.0142 309.223 33.064 309.05 33.161C308.882 33.2582 308.747 33.4019 308.659 33.5746C308.561 33.7746 308.514 33.9954 308.52 34.2179V36.7114L307.925 36.7057Z" fill="white"/>
</svg>
