<svg width="90" height="374" viewBox="0 0 90 374" fill="none" xmlns="http://www.w3.org/2000/svg">
<circle cx="3.79388" cy="3.79388" r="3.79388" fill="#8D0BFF" fill-opacity="0.4"/>
<circle cx="3.79388" cy="175.73" r="3.79388" fill="#8D0BFF" fill-opacity="0.4"/>
<circle cx="3.79388" cy="304.778" r="3.79388" fill="#8D0BFF" fill-opacity="0.4"/>
<circle cx="3.79388" cy="89.7621" r="3.79388" fill="#8D0BFF" fill-opacity="0.4"/>
<circle cx="3.79388" cy="46.7778" r="3.79388" fill="#8D0BFF" fill-opacity="0.4"/>
<circle cx="3.79388" cy="218.714" r="3.79388" fill="#8D0BFF" fill-opacity="0.4"/>
<circle cx="3.79388" cy="347.762" r="3.79388" fill="#8D0BFF" fill-opacity="0.4"/>
<circle cx="3.79388" cy="132.746" r="3.79388" fill="#8D0BFF" fill-opacity="0.4"/>
<circle cx="3.79388" cy="261.794" r="3.79388" fill="#8D0BFF" fill-opacity="0.4"/>
<circle cx="3.79388" cy="25.2861" r="3.79388" fill="#8D0BFF" fill-opacity="0.4"/>
<circle cx="3.79388" cy="197.222" r="3.79388" fill="#8D0BFF" fill-opacity="0.4"/>
<circle cx="3.79388" cy="326.27" r="3.79388" fill="#8D0BFF" fill-opacity="0.4"/>
<circle cx="3.79388" cy="111.254" r="3.79388" fill="#8D0BFF" fill-opacity="0.4"/>
<circle cx="3.79388" cy="68.27" r="3.79388" fill="#8D0BFF" fill-opacity="0.4"/>
<circle cx="3.79388" cy="240.206" r="3.79388" fill="#8D0BFF" fill-opacity="0.4"/>
<circle cx="3.79388" cy="369.254" r="3.79388" fill="#8D0BFF" fill-opacity="0.4"/>
<circle cx="3.79388" cy="154.238" r="3.79388" fill="#8D0BFF" fill-opacity="0.4"/>
<circle cx="3.79388" cy="283.286" r="3.79388" fill="#8D0BFF" fill-opacity="0.4"/>
<circle cx="25.2861" cy="3.79388" r="3.79388" fill="#8D0BFF" fill-opacity="0.4"/>
<circle cx="25.2861" cy="175.73" r="3.79388" fill="#8D0BFF" fill-opacity="0.4"/>
<circle cx="25.2861" cy="304.778" r="3.79388" fill="#8D0BFF" fill-opacity="0.4"/>
<circle cx="25.2861" cy="89.7621" r="3.79388" fill="#8D0BFF" fill-opacity="0.4"/>
<circle cx="25.2861" cy="46.7778" r="3.79388" fill="#8D0BFF" fill-opacity="0.4"/>
<circle cx="25.2861" cy="218.714" r="3.79388" fill="#8D0BFF" fill-opacity="0.4"/>
<circle cx="25.2861" cy="347.762" r="3.79388" fill="#8D0BFF" fill-opacity="0.4"/>
<circle cx="25.2861" cy="132.746" r="3.79388" fill="#8D0BFF" fill-opacity="0.4"/>
<circle cx="25.2861" cy="261.794" r="3.79388" fill="#8D0BFF" fill-opacity="0.4"/>
<circle cx="25.2861" cy="25.2861" r="3.79388" fill="#8D0BFF" fill-opacity="0.4"/>
<circle cx="25.2861" cy="197.222" r="3.79388" fill="#8D0BFF" fill-opacity="0.4"/>
<circle cx="25.2861" cy="326.27" r="3.79388" fill="#8D0BFF" fill-opacity="0.4"/>
<circle cx="25.2861" cy="111.254" r="3.79388" fill="#8D0BFF" fill-opacity="0.4"/>
<circle cx="25.2861" cy="68.27" r="3.79388" fill="#8D0BFF" fill-opacity="0.4"/>
<circle cx="25.2861" cy="240.206" r="3.79388" fill="#8D0BFF" fill-opacity="0.4"/>
<circle cx="25.2861" cy="369.254" r="3.79388" fill="#8D0BFF" fill-opacity="0.4"/>
<circle cx="25.2861" cy="154.238" r="3.79388" fill="#8D0BFF" fill-opacity="0.4"/>
<circle cx="25.2861" cy="283.286" r="3.79388" fill="#8D0BFF" fill-opacity="0.4"/>
<circle cx="46.7778" cy="3.79388" r="3.79388" fill="#8D0BFF" fill-opacity="0.4"/>
<circle cx="46.7778" cy="175.73" r="3.79388" fill="#8D0BFF" fill-opacity="0.4"/>
<circle cx="46.7778" cy="304.778" r="3.79388" fill="#8D0BFF" fill-opacity="0.4"/>
<circle cx="46.7778" cy="89.7621" r="3.79388" fill="#8D0BFF" fill-opacity="0.4"/>
<circle cx="46.7778" cy="46.7778" r="3.79388" fill="#8D0BFF" fill-opacity="0.4"/>
<circle cx="46.7778" cy="218.714" r="3.79388" fill="#8D0BFF" fill-opacity="0.4"/>
<circle cx="46.7778" cy="347.762" r="3.79388" fill="#8D0BFF" fill-opacity="0.4"/>
<circle cx="46.7778" cy="132.746" r="3.79388" fill="#8D0BFF" fill-opacity="0.4"/>
<circle cx="46.7778" cy="261.794" r="3.79388" fill="#8D0BFF" fill-opacity="0.4"/>
<circle cx="46.7778" cy="25.2861" r="3.79388" fill="#8D0BFF" fill-opacity="0.4"/>
<circle cx="46.7778" cy="197.222" r="3.79388" fill="#8D0BFF" fill-opacity="0.4"/>
<circle cx="46.7778" cy="326.27" r="3.79388" fill="#8D0BFF" fill-opacity="0.4"/>
<circle cx="46.7778" cy="111.254" r="3.79388" fill="#8D0BFF" fill-opacity="0.4"/>
<circle cx="46.7778" cy="68.27" r="3.79388" fill="#8D0BFF" fill-opacity="0.4"/>
<circle cx="46.7778" cy="240.206" r="3.79388" fill="#8D0BFF" fill-opacity="0.4"/>
<circle cx="46.7778" cy="369.254" r="3.79388" fill="#8D0BFF" fill-opacity="0.4"/>
<circle cx="46.7778" cy="154.238" r="3.79388" fill="#8D0BFF" fill-opacity="0.4"/>
<circle cx="46.7778" cy="283.286" r="3.79388" fill="#8D0BFF" fill-opacity="0.4"/>
<circle cx="68.27" cy="3.79388" r="3.79388" fill="#8D0BFF" fill-opacity="0.4"/>
<circle cx="68.27" cy="175.73" r="3.79388" fill="#8D0BFF" fill-opacity="0.4"/>
<circle cx="68.27" cy="304.778" r="3.79388" fill="#8D0BFF" fill-opacity="0.4"/>
<circle cx="68.27" cy="89.7621" r="3.79388" fill="#8D0BFF" fill-opacity="0.4"/>
<circle cx="68.27" cy="46.7778" r="3.79388" fill="#8D0BFF" fill-opacity="0.4"/>
<circle cx="68.27" cy="218.714" r="3.79388" fill="#8D0BFF" fill-opacity="0.4"/>
<circle cx="68.27" cy="347.762" r="3.79388" fill="#8D0BFF" fill-opacity="0.4"/>
<circle cx="68.27" cy="132.746" r="3.79388" fill="#8D0BFF" fill-opacity="0.4"/>
<circle cx="68.27" cy="261.794" r="3.79388" fill="#8D0BFF" fill-opacity="0.4"/>
<circle cx="68.27" cy="25.2861" r="3.79388" fill="#8D0BFF" fill-opacity="0.4"/>
<circle cx="68.27" cy="197.222" r="3.79388" fill="#8D0BFF" fill-opacity="0.4"/>
<circle cx="68.27" cy="326.27" r="3.79388" fill="#8D0BFF" fill-opacity="0.4"/>
<circle cx="68.27" cy="111.254" r="3.79388" fill="#8D0BFF" fill-opacity="0.4"/>
<circle cx="68.27" cy="68.27" r="3.79388" fill="#8D0BFF" fill-opacity="0.4"/>
<circle cx="68.27" cy="240.206" r="3.79388" fill="#8D0BFF" fill-opacity="0.4"/>
<circle cx="68.27" cy="369.254" r="3.79388" fill="#8D0BFF" fill-opacity="0.4"/>
<circle cx="68.27" cy="154.238" r="3.79388" fill="#8D0BFF" fill-opacity="0.4"/>
<circle cx="68.27" cy="283.286" r="3.79388" fill="#8D0BFF" fill-opacity="0.4"/>
<circle cx="89.7621" cy="3.79388" r="3.79388" fill="#8D0BFF" fill-opacity="0.4"/>
<circle cx="89.7621" cy="175.73" r="3.79388" fill="#8D0BFF" fill-opacity="0.4"/>
<circle cx="89.7621" cy="304.778" r="3.79388" fill="#8D0BFF" fill-opacity="0.4"/>
<circle cx="89.7621" cy="89.7621" r="3.79388" fill="#8D0BFF" fill-opacity="0.4"/>
<circle cx="89.7621" cy="46.7778" r="3.79388" fill="#8D0BFF" fill-opacity="0.4"/>
<circle cx="89.7621" cy="218.714" r="3.79388" fill="#8D0BFF" fill-opacity="0.4"/>
<circle cx="89.7621" cy="347.762" r="3.79388" fill="#8D0BFF" fill-opacity="0.4"/>
<circle cx="89.7621" cy="132.746" r="3.79388" fill="#8D0BFF" fill-opacity="0.4"/>
<circle cx="89.7621" cy="261.794" r="3.79388" fill="#8D0BFF" fill-opacity="0.4"/>
<circle cx="89.7621" cy="25.2861" r="3.79388" fill="#8D0BFF" fill-opacity="0.4"/>
<circle cx="89.7621" cy="197.222" r="3.79388" fill="#8D0BFF" fill-opacity="0.4"/>
<circle cx="89.7621" cy="326.27" r="3.79388" fill="#8D0BFF" fill-opacity="0.4"/>
<circle cx="89.7621" cy="111.254" r="3.79388" fill="#8D0BFF" fill-opacity="0.4"/>
<circle cx="89.7621" cy="68.27" r="3.79388" fill="#8D0BFF" fill-opacity="0.4"/>
<circle cx="89.7621" cy="240.206" r="3.79388" fill="#8D0BFF" fill-opacity="0.4"/>
<circle cx="89.7621" cy="369.254" r="3.79388" fill="#8D0BFF" fill-opacity="0.4"/>
<circle cx="89.7621" cy="154.238" r="3.79388" fill="#8D0BFF" fill-opacity="0.4"/>
<circle cx="89.7621" cy="283.286" r="3.79388" fill="#8D0BFF" fill-opacity="0.4"/>
</svg>
